<?xml version="1.0" encoding="utf-8"?>
<!-- Generator: Adobe Illustrator 16.0.4, SVG Export Plug-In . SVG Version: 6.00 Build 0)  -->
<!DOCTYPE svg PUBLIC "-//W3C//DTD SVG 1.1//EN" "http://www.w3.org/Graphics/SVG/1.1/DTD/svg11.dtd">
<svg version="1.1" id="Layer_1" xmlns="http://www.w3.org/2000/svg" xmlns:xlink="http://www.w3.org/1999/xlink" x="0px" y="0px"
	 width="506px" height="148px" viewBox="0 0 506 148" enable-background="new 0 0 506 148" xml:space="preserve">
<g>
	<g>
		<path fill="#FFFFFF" d="M249.147,29.753l8.134-7.145l-16.88-2.367l-16.893-2.291v0.273c0,0,0.062,21.53,0.154,21.53l0.106,12.213
			l9.203-8.062c2.156,2.291,3.485,5.405,3.485,8.826c0,7.144-5.854,12.991-13.01,12.991c-7.23,0-13.008-5.848-13.008-12.991
			c0-6.259,5.977-10.947,5.977-10.947l-11.253-18.306c-8.041,2.84-16.236,16.946-16.236,29.253c0,19.023,15.458,34.427,34.52,34.427
			c19.033,0,34.503-15.403,34.503-34.427C257.95,43.861,254.604,35.847,249.147,29.753z"/>
		<g>
			<path fill="#FFFFFF" d="M92.983,77.862H75.71l-3.883-9.711H52.502l-3.012,9.711H33.149l20.668-55.238h18.117L92.983,77.862z
				 M68.524,55.877l-6.407-20.381L57.364,55.8L68.524,55.877z"/>
			<path fill="#FFFFFF" d="M97.081,37.815h14.431V61.45c0,0,0.992,5.586,7.308,5.586c5.042-0.211,5.657-5.513,5.657-5.513V38.074
				h14.6v39.008h-14.02v-6.169c0,0-6.605,6.43-9.601,6.949c-3.057,0.517-10.93,1.847-14.69-2.9
				c-3.807-4.733-3.303-6.229-3.303-6.229L97.081,37.815z"/>
			<path fill="#FFFFFF" d="M386.503,37.815h14.432V61.45c0,0,0.964,5.586,7.309,5.586c5.045-0.211,5.656-5.513,5.656-5.513V38.074
				h14.63v39.008h-14.035v-6.169c0,0-6.602,6.43-9.598,6.949c-3.09,0.517-10.949,1.847-14.726-2.9
				c-3.776-4.733-3.302-6.229-3.302-6.229L386.503,37.815z"/>
			<path fill="#FFFFFF" d="M175.353,38.138v9.754h-8.943V62.7c0,3.282,0.092,5.178,0.26,5.695c0.169,0.566,0.566,0.993,1.131,1.372
				c0.641,0.31,1.361,0.461,2.232,0.461c1.237,0,2.997-0.32,5.32-0.961l1.101,8.165c-3.072,1.115-6.512,1.665-10.379,1.665
				c-2.385,0-4.511-0.351-6.421-1.035c-1.911-0.63-3.288-1.453-4.159-2.477c-0.933-1.006-1.559-2.351-1.879-4.122
				c-0.276-1.235-0.397-3.678-0.397-7.451V47.801h-6.039v-9.663h6.039v-8.003l13.192-6.107v14.11H175.353z"/>
			<path fill="#FFFFFF" d="M271.726,77.862V22.624h15.625l0.076,19.16h20.577l-0.028-19.16h15.714v55.238h-16.218l-0.079-21.802
				l-19.966,0.18l0.122,21.622H271.726z"/>
			<path fill="#FFFFFF" d="M346.834,50.028l-11.848-1.74c1.329-3.88,3.638-6.686,6.91-8.564c3.21-1.863,8.057-2.825,14.446-2.825
				c5.823,0,10.15,0.581,13.041,1.694c2.798,1.131,4.816,2.55,5.978,4.215c1.162,1.756,1.743,4.885,1.743,9.543l-0.124,12.363
				c0,3.515,0.169,6.095,0.597,7.789c0.397,1.633,1.162,3.451,2.338,5.359h-12.886c-0.351-0.703-0.75-1.757-1.253-3.129
				c-0.228-0.615-0.397-1.07-0.46-1.222c-2.215,1.709-4.6,3.053-7.154,3.921c-2.583,0.887-5.226,1.345-8.1,1.345
				c-5.075,0-9.098-1.146-12.017-3.404c-2.904-2.182-4.372-5.039-4.372-8.429c0-2.259,0.688-4.244,2.001-6.075
				c1.329-1.773,3.198-3.101,5.564-4.046c2.417-0.979,5.87-1.771,10.381-2.489c6.085-0.932,10.29-1.802,12.688-2.596v-1.066
				c0-2.046-0.624-3.514-1.91-4.368c-1.192-0.854-3.53-1.284-6.986-1.284c-2.293,0-4.158,0.382-5.442,1.115
				C348.697,46.854,347.644,48.167,346.834,50.028z M364.306,58.608c-1.665,0.461-4.325,1.038-7.963,1.637
				c-3.624,0.655-5.933,1.235-7.091,1.859c-1.668,0.946-2.555,2.2-2.555,3.727c0,1.468,0.672,2.75,2.032,3.849
				c1.361,1.097,3.12,1.584,5.228,1.584c2.325,0,4.571-0.609,6.728-1.875c1.574-0.946,2.568-2.09,3.103-3.482
				c0.338-0.917,0.52-2.595,0.52-5.174V58.608z"/>
			<path fill="#FFFFFF" d="M437.519,66.394l11.542-1.586c0.552,2.077,1.513,3.588,3.013,4.703c1.512,1.101,3.607,1.588,6.343,1.588
				c2.951,0,5.185-0.487,6.712-1.498c1.009-0.716,1.516-1.678,1.516-2.838c0-0.78-0.277-1.466-0.859-1.97
				c-0.536-0.52-1.818-0.978-3.806-1.451c-9.341-1.861-15.212-3.528-17.718-5.145c-3.394-2.137-5.181-5.144-5.181-8.979
				c0-3.449,1.513-6.427,4.538-8.749c2.953-2.396,7.553-3.571,13.851-3.571c5.933,0,10.398,0.917,13.283,2.705
				c2.892,1.753,4.91,4.426,5.996,7.86l-10.869,1.878c-0.475-1.541-1.346-2.748-2.66-3.558c-1.3-0.825-3.136-1.237-5.55-1.237
				c-3.072,0-5.242,0.335-6.526,1.131c-0.858,0.567-1.331,1.269-1.331,2.168c0,0.762,0.428,1.42,1.147,1.906
				c1.054,0.733,4.631,1.742,10.792,2.979c6.129,1.297,10.425,2.885,12.842,4.731c2.415,1.851,3.652,4.52,3.652,7.896
				c0,3.616-1.696,6.778-5.044,9.403c-3.316,2.671-8.254,4.016-14.785,4.016c-5.947,0-10.639-1.146-14.141-3.357
				C440.867,73.235,438.574,70.229,437.519,66.394z"/>
		</g>
	</g>
	<path fill="#FFCC00" d="M247.404,29.48l8.177-7.21l-16.876-2.29l-16.893-2.304v0.273c-0.06,0,0.046,21.527,0.152,21.56
		l0.078,12.198l9.217-8.074c2.141,2.302,3.472,5.433,3.472,8.792c0,7.221-5.809,13.022-13.027,13.022
		c-7.167,0-12.993-5.802-12.993-13.022c0-6.229,5.991-10.914,5.991-10.914L203.42,23.203c-8.025,2.871-16.219,16.916-16.219,29.223
		c0,19.038,15.455,34.506,34.503,34.506c19.079,0,34.505-15.468,34.505-34.506C256.209,43.634,252.891,35.569,247.404,29.48z"/>
	<path fill="#F39200" d="M202.336,26.777l8.866,14.167c0,0-11.344,11.101-0.489,22.932c0,0,9.157,9.178,20.883,0.838
		c0,0,8.531-6.195,4.664-17.768c0,0-1.362-3.908-5.001-6.978l-6.771,5.907l-0.062-25.054l25.087,3.312l-5.871,5.068
		c0,0,6.696,6.075,9.112,16.871c0,0,2.553,9.941-2.416,19.985c0,0-6.298,14.581-22.501,17.633c0,0-11.894,2.962-22.536-4.044
		c0,0-9.094-4.367-13.85-16.81c0,0-4.571-11.345,1.514-24.167C192.964,38.672,195.823,31.523,202.336,26.777z"/>
	<rect x="18.84" y="94.473" fill="#F39200" width="469.816" height="38.049"/>
	<g>
		<path fill="#FFFFFF" d="M35.55,109.099h-5.734v-3.543h15.749v3.543h-5.826v15.634H35.55V109.099z"/>
		<path fill="#FFFFFF" d="M58.251,110.475c2.187,0,3.93,0.686,5.259,2.045c1.267,1.312,1.956,3.052,1.956,5.327
			c0,2.201-0.643,3.924-1.956,5.253c-1.33,1.28-3.073,1.985-5.259,1.985c-2.172,0-3.899-0.705-5.198-1.985
			c-1.299-1.329-1.957-3.144-1.957-5.253c0-2.275,0.658-4.015,1.957-5.327C54.352,111.16,56.079,110.475,58.251,110.475z
			 M58.251,122.26c1.207,0,2.08-0.489,2.676-1.406c0.443-0.763,0.702-1.799,0.702-3.007c0-1.327-0.229-2.367-0.702-3.099
			c-0.564-0.946-1.469-1.436-2.676-1.436c-1.162,0-2.048,0.489-2.646,1.436c-0.414,0.778-0.719,1.832-0.719,3.099
			c0,1.251,0.305,2.244,0.719,3.007C56.188,121.771,57.027,122.26,58.251,122.26z"/>
		<path fill="#FFFFFF" d="M76.978,110.899h2.783v2.475h-2.783v6.855c0,0.672,0.108,1.146,0.321,1.343
			c0.199,0.198,0.642,0.322,1.284,0.322c0.275,0,0.458,0,0.566-0.017c0.167,0,0.367-0.061,0.611-0.14v3.024
			c-0.627,0.047-1.391,0.09-2.218,0.09c-1.344,0-2.354-0.182-3.042-0.564c-0.887-0.517-1.33-1.387-1.33-2.716v-8.198h-2.293v-2.475
			h2.293v-4.241h3.806V110.899z"/>
		<path fill="#FFFFFF" d="M85.647,115.146c0-1.68,0.719-2.888,2.077-3.683c1.131-0.655,2.6-0.989,4.479-0.989
			c1.713,0,3.074,0.273,4.082,0.746c1.315,0.624,2.003,1.696,2.003,3.207v7.208c0,0.716,0.047,1.355,0.093,1.877
			c0.107,0.487,0.245,0.961,0.411,1.22h-3.867c-0.06-0.196-0.151-0.412-0.197-0.703c-0.048-0.227-0.079-0.427-0.079-0.654
			c-0.61,0.611-1.329,1.005-2.168,1.296c-0.766,0.306-1.623,0.414-2.524,0.414c-1.405,0-2.538-0.353-3.333-1.007
			c-0.932-0.703-1.375-1.771-1.375-3.133c0-1.418,0.489-2.457,1.452-3.188c0.718-0.46,1.804-0.825,3.256-1.056
			c2.003-0.276,3.072-0.43,3.118-0.43c0.934-0.229,1.346-0.701,1.346-1.402c0-0.765-0.23-1.252-0.719-1.558
			c-0.322-0.198-0.918-0.304-1.698-0.304c-0.717,0-1.329,0.18-1.756,0.518c-0.459,0.337-0.719,0.901-0.764,1.62H85.647z
			 M94.421,117.924c-0.23,0.23-0.719,0.44-1.438,0.564c-0.78,0.106-1.283,0.184-1.696,0.259c-0.688,0.137-1.224,0.351-1.558,0.534
			c-0.431,0.354-0.675,0.871-0.675,1.498c0,0.654,0.244,1.16,0.675,1.419c0.411,0.243,0.946,0.335,1.634,0.335
			c1.023,0,1.818-0.245,2.294-0.795c0.534-0.532,0.764-1.326,0.764-2.393V117.924z"/>
		<path fill="#FFFFFF" d="M105.582,105.556h3.834v19.177h-3.834V105.556z"/>
		<path fill="#FFFFFF" d="M138.419,105.556h4.295l7.216,19.177h-4.388l-1.452-4.275h-7.171l-1.513,4.275h-4.28L138.419,105.556z
			 M138.005,117.328h4.953l-2.385-7.041L138.005,117.328z"/>
		<path fill="#FFFFFF" d="M168.474,124.732h-3.625v-1.97h-0.122c-0.474,0.765-1.039,1.356-1.834,1.756
			c-0.779,0.334-1.559,0.566-2.43,0.566c-1.897,0-3.21-0.519-3.992-1.558c-0.7-0.868-1.037-2.263-1.037-4.122v-8.506h3.79v7.772
			c0,1.207,0.199,2.061,0.552,2.593c0.38,0.553,1.024,0.827,1.879,0.827c1.039,0,1.76-0.321,2.279-0.947
			c0.458-0.596,0.688-1.617,0.688-3.035v-7.21h3.852V124.732z"/>
		<path fill="#FFFFFF" d="M180.367,110.899h2.845v2.475h-2.845v6.855c0,0.672,0.139,1.146,0.321,1.343
			c0.261,0.198,0.673,0.322,1.315,0.322c0.244,0,0.443,0,0.595-0.017c0.092,0,0.308-0.061,0.613-0.14v3.024
			c-0.688,0.047-1.437,0.09-2.248,0.09c-1.376,0-2.4-0.182-3.026-0.564c-0.932-0.517-1.377-1.387-1.377-2.716v-8.198h-2.277v-2.475
			h2.277v-4.241h3.807V110.899z"/>
		<path fill="#FFFFFF" d="M195.945,110.475c2.232,0,3.913,0.686,5.274,2.045c1.329,1.312,1.972,3.052,1.972,5.327
			c0,2.201-0.643,3.924-1.972,5.253c-1.314,1.28-3.042,1.985-5.274,1.985c-2.155,0-3.913-0.705-5.199-1.985
			c-1.297-1.329-1.956-3.144-1.956-5.253c0-2.275,0.658-4.015,1.956-5.327C192.032,111.16,193.79,110.475,195.945,110.475z
			 M195.945,122.26c1.207,0,2.094-0.489,2.706-1.406c0.443-0.763,0.688-1.799,0.688-3.007c0-1.327-0.23-2.367-0.688-3.099
			c-0.582-0.946-1.483-1.436-2.706-1.436c-1.131,0-2.018,0.489-2.599,1.436c-0.488,0.778-0.734,1.832-0.734,3.099
			c0,1.251,0.246,2.244,0.719,3.007C193.882,121.771,194.769,122.26,195.945,122.26z"/>
		<path fill="#FFFFFF" d="M209.95,110.899h3.637v1.834c0.537-0.701,1.115-1.27,1.866-1.649c0.703-0.383,1.543-0.609,2.415-0.609
			c0.901,0,1.759,0.227,2.447,0.547c0.655,0.368,1.251,0.979,1.589,1.757c0.458-0.626,1.025-1.188,1.667-1.588
			c0.763-0.442,1.621-0.716,2.538-0.716c1.59,0,2.813,0.363,3.683,1.115c0.917,0.838,1.393,2.163,1.393,3.847v9.296h-3.855v-7.83
			c0-1.18-0.075-2.004-0.306-2.43c-0.304-0.671-0.993-1.006-1.97-1.006c-1.008,0-1.653,0.365-2.095,1.113
			c-0.306,0.566-0.459,1.389-0.459,2.444v7.708h-3.852v-7.787c0-1.158-0.045-1.937-0.215-2.349c-0.32-0.765-1.009-1.13-2.11-1.13
			c-0.532,0-1.068,0.184-1.511,0.565c-0.688,0.564-1.025,1.404-1.025,2.624v8.076h-3.837V110.899z"/>
		<path fill="#FFFFFF" d="M245.156,110.475c2.202,0,3.962,0.686,5.258,2.045c1.33,1.312,1.958,3.052,1.958,5.327
			c0,2.201-0.627,3.924-1.958,5.253c-1.296,1.28-3.056,1.985-5.258,1.985c-2.156,0-3.883-0.705-5.214-1.985
			c-1.298-1.329-1.911-3.144-1.911-5.253c0-2.275,0.612-4.015,1.911-5.327C241.273,111.16,243,110.475,245.156,110.475z
			 M245.156,122.26c1.191,0,2.11-0.489,2.66-1.406c0.489-0.763,0.748-1.799,0.748-3.007c0-1.327-0.245-2.367-0.734-3.099
			c-0.563-0.946-1.466-1.436-2.674-1.436c-1.177,0-2.048,0.489-2.568,1.436c-0.52,0.778-0.765,1.832-0.765,3.099
			c0,1.251,0.23,2.244,0.703,3.007C243.108,121.771,243.979,122.26,245.156,122.26z"/>
		<path fill="#FFFFFF" d="M263.869,110.899h2.78v2.475h-2.78v6.855c0,0.672,0.122,1.146,0.32,1.343
			c0.229,0.198,0.675,0.322,1.331,0.322c0.261,0,0.475,0,0.566-0.017c0.151,0,0.351-0.061,0.563-0.14v3.024
			c-0.61,0.047-1.343,0.09-2.185,0.09c-1.376,0-2.414-0.182-3.086-0.564c-0.86-0.517-1.255-1.387-1.255-2.716v-8.198h-2.354v-2.475
			h2.354v-4.241h3.746V110.899z"/>
		<path fill="#FFFFFF" d="M276.634,108.718h-3.84v-3.162h3.84V108.718z M272.794,110.899h3.84v13.833h-3.84V110.899z"/>
		<path fill="#FFFFFF" d="M291.521,124.732h-4.203l-4.739-13.833h4.007l2.951,9.421l2.949-9.421h3.806L291.521,124.732z"/>
		<path fill="#FFFFFF" d="M305.219,118.672c0,1.207,0.277,2.107,0.888,2.703c0.597,0.564,1.423,0.885,2.54,0.885
			c0.671,0,1.36-0.229,1.892-0.563c0.615-0.37,0.966-0.795,1.101-1.284h3.396c-0.565,1.619-1.391,2.812-2.491,3.574
			c-1.084,0.731-2.433,1.099-4.066,1.099c-2.172,0-3.869-0.705-5.168-2.002c-1.284-1.345-1.925-3.127-1.925-5.236
			c0-2.124,0.641-3.906,1.955-5.299c1.331-1.357,3.027-2.073,5.138-2.073c2.232,0,3.974,0.836,5.136,2.504
			c1.086,1.494,1.637,3.418,1.637,5.693H305.219z M311.366,116.272c-0.122-0.991-0.414-1.692-0.917-2.197
			c-0.489-0.474-1.162-0.763-2.032-0.763c-1.086,0-1.957,0.381-2.54,1.115c-0.442,0.55-0.658,1.144-0.658,1.845H311.366z"/>
		<path fill="#FFFFFF" d="M351.1,112c-0.185-0.979-0.644-1.741-1.439-2.427c-0.823-0.611-1.712-0.872-2.766-0.872
			c-1.79,0-3.104,0.628-4.036,2c-0.795,1.162-1.164,2.673-1.164,4.487c0,1.836,0.369,3.3,1.164,4.447c0.932,1.31,2.246,2,4.036,2
			c1.268,0,2.262-0.43,3.01-1.179c0.734-0.748,1.194-1.785,1.329-3.082h4.084c-0.261,2.353-1.072,4.261-2.615,5.647
			c-1.528,1.451-3.485,2.181-5.809,2.181c-2.906,0-5.199-1.021-6.958-2.915c-1.666-1.831-2.491-4.226-2.491-7.1
			c0-2.899,0.826-5.297,2.491-7.158c1.714-1.909,4.052-2.9,6.958-2.9c2.154,0,4.003,0.579,5.487,1.755
			c1.591,1.234,2.523,2.901,2.782,5.115H351.1z"/>
		<path fill="#FFFFFF" d="M368.726,110.475c2.185,0,3.958,0.686,5.243,2.045c1.314,1.312,1.957,3.052,1.957,5.327
			c0,2.201-0.642,3.924-1.94,5.253c-1.3,1.28-3.074,1.985-5.259,1.985c-2.17,0-3.883-0.705-5.199-1.985
			c-1.314-1.329-1.957-3.144-1.957-5.253c0-2.275,0.642-4.015,1.957-5.327C364.843,111.16,366.556,110.475,368.726,110.475z
			 M368.726,122.26c1.207,0,2.045-0.489,2.66-1.406c0.457-0.763,0.702-1.799,0.702-3.007c0-1.327-0.245-2.367-0.672-3.099
			c-0.565-0.946-1.466-1.436-2.689-1.436c-1.192,0-2.048,0.489-2.615,1.436c-0.489,0.778-0.734,1.832-0.734,3.099
			c0,1.251,0.245,2.244,0.689,3.007C366.678,121.771,367.518,122.26,368.726,122.26z"/>
		<path fill="#FFFFFF" d="M382.639,110.899h3.638v1.879h0.074c0.444-0.746,1.025-1.314,1.836-1.694
			c0.734-0.383,1.529-0.609,2.399-0.609c1.896,0,3.241,0.534,4.05,1.57c0.69,0.917,1.058,2.321,1.058,4.14v8.548h-3.854v-7.83
			c0-1.18-0.184-2.077-0.565-2.643c-0.369-0.507-0.994-0.793-1.851-0.793c-1.054,0-1.818,0.318-2.293,0.961
			c-0.458,0.609-0.688,1.615-0.688,2.99v7.314h-3.804V110.899z"/>
		<path fill="#FFFFFF" d="M412.219,115.723c-0.232-1.587-1.178-2.41-2.814-2.41c-1.131,0-1.953,0.52-2.536,1.513
			c-0.475,0.838-0.705,1.831-0.705,3.037c0,1.162,0.23,2.094,0.689,2.917c0.534,0.959,1.392,1.48,2.523,1.48
			c0.826,0,1.496-0.261,2.003-0.746c0.532-0.538,0.84-1.239,1.007-2.108h3.684c-0.243,1.801-0.975,3.237-2.169,4.197
			c-1.162,0.964-2.69,1.482-4.525,1.482c-2.14,0-3.791-0.705-5.061-1.985c-1.315-1.329-1.957-3.009-1.957-5.129
			c0-2.184,0.642-4,1.834-5.423c1.284-1.357,3.027-2.073,5.212-2.073c1.806,0,3.318,0.44,4.496,1.297
			c1.392,1.007,2.111,2.274,2.111,3.951H412.219z"/>
		<path fill="#FFFFFF" d="M425.55,118.672c0,1.207,0.349,2.107,0.932,2.703c0.581,0.564,1.422,0.885,2.507,0.885
			c0.748,0,1.392-0.229,1.971-0.563c0.538-0.37,0.919-0.795,1.072-1.284h3.349c-0.55,1.619-1.363,2.812-2.478,3.574
			c-1.07,0.731-2.432,1.099-4.081,1.099c-2.142,0-3.868-0.705-5.138-2.002c-1.298-1.345-1.924-3.127-1.924-5.236
			c0-2.124,0.642-3.906,1.971-5.299c1.298-1.357,3.01-2.073,5.091-2.073c2.247,0,3.973,0.836,5.151,2.504
			c1.07,1.494,1.606,3.418,1.606,5.693H425.55z M431.785,116.272c-0.196-0.991-0.473-1.692-0.977-2.197
			c-0.475-0.474-1.162-0.763-2.036-0.763c-1.115,0-1.94,0.381-2.521,1.115c-0.443,0.55-0.702,1.144-0.702,1.845H431.785z"/>
		<path fill="#FFFFFF" d="M442.088,110.899h3.656v1.648c0.444-0.64,1.021-1.158,1.743-1.539c0.701-0.308,1.528-0.534,2.432-0.534
			c2.061,0,3.667,0.746,4.8,2.259c1.009,1.342,1.512,3.084,1.512,5.19c0,1.983-0.503,3.648-1.482,4.99
			c-1.147,1.438-2.676,2.171-4.616,2.171c-0.858,0-1.682-0.186-2.401-0.519c-0.721-0.385-1.331-0.888-1.773-1.559h-0.061v6.612
			h-3.809V110.899z M452.379,117.847c0-1.267-0.261-2.32-0.734-3.085c-0.55-0.96-1.406-1.449-2.584-1.449
			c-1.131,0-1.987,0.489-2.568,1.436c-0.457,0.778-0.734,1.832-0.734,3.099c0,1.251,0.277,2.244,0.75,3.055
			c0.565,0.916,1.421,1.358,2.599,1.358c1.176,0,1.987-0.442,2.584-1.358C452.165,120.091,452.379,119.098,452.379,117.847z"/>
		<path fill="#FFFFFF" d="M467.528,110.899h2.813v2.475h-2.813v6.855c0,0.672,0.092,1.146,0.338,1.343
			c0.212,0.198,0.622,0.322,1.282,0.322c0.23,0,0.426,0,0.581-0.017c0.137,0,0.32-0.061,0.611-0.14v3.024
			c-0.703,0.047-1.437,0.09-2.216,0.09c-1.345,0-2.37-0.182-3.057-0.564c-0.874-0.517-1.361-1.387-1.361-2.716v-8.198h-2.278v-2.475
			h2.278v-4.241h3.821V110.899z"/>
	</g>
	<g>
		<path fill="#F39200" d="M90.294,77.862h-17.26l-3.868-9.711H49.78l-3.01,9.711H30.458l20.684-55.238h18.1L90.294,77.862z
			 M65.834,55.877l-6.452-20.381L54.66,55.8L65.834,55.877z"/>
		<path fill="#F39200" d="M94.377,37.815h14.43V61.45c0,0,0.963,5.586,7.308,5.586c5.028-0.211,5.688-5.513,5.688-5.513V38.074
			h14.601v39.008h-14.021v-6.169c0,0-6.571,6.43-9.645,6.949c-3.059,0.517-10.916,1.847-14.693-2.9
			c-3.758-4.733-3.269-6.229-3.269-6.229L94.377,37.815z"/>
		<path fill="#F39200" d="M383.799,37.815h14.416V61.45c0,0,0.964,5.586,7.307,5.586c5.044-0.211,5.703-5.513,5.703-5.513V38.074
			h14.585v39.008h-14.035v-6.169c0,0-6.542,6.43-9.614,6.949c-3.012,0.517-10.886,1.847-14.693-2.9
			c-3.746-4.733-3.255-6.229-3.255-6.229L383.799,37.815z"/>
		<path fill="#F39200" d="M172.662,38.138v9.754h-8.972V62.7c0,3.282,0.093,5.178,0.274,5.695c0.152,0.566,0.581,0.993,1.162,1.372
			c0.598,0.31,1.376,0.461,2.202,0.461c1.207,0,3.026-0.32,5.289-0.961l1.131,8.165c-3.058,1.115-6.466,1.665-10.38,1.665
			c-2.371,0-4.51-0.351-6.391-1.035c-1.912-0.63-3.303-1.453-4.205-2.477c-0.87-1.006-1.512-2.351-1.848-4.122
			c-0.277-1.235-0.429-3.678-0.429-7.451V47.801h-6.054v-9.663h6.054v-8.003l13.194-6.107v14.11H172.662z"/>
		<path fill="#F39200" d="M268.99,77.862V22.624h15.684l0.031,19.16h20.577v-19.16h15.716v55.238h-16.175l-0.123-21.802
			l-19.996,0.18l0.122,21.622H268.99z"/>
		<path fill="#F39200" d="M344.158,50.028l-11.848-1.74c1.361-3.88,3.624-6.686,6.848-8.564c3.288-1.863,8.118-2.825,14.495-2.825
			c5.807,0,10.179,0.581,12.992,1.694c2.874,1.131,4.861,2.55,6.039,4.215c1.162,1.756,1.698,4.885,1.698,9.543l-0.151,12.363
			c0,3.515,0.243,6.095,0.64,7.789c0.412,1.633,1.207,3.451,2.34,5.359h-12.905c-0.334-0.703-0.746-1.757-1.207-3.129
			c-0.245-0.615-0.397-1.07-0.473-1.222c-2.25,1.709-4.616,3.053-7.14,3.921c-2.552,0.887-5.273,1.345-8.132,1.345
			c-5.061,0-9.082-1.146-12.062-3.404c-2.843-2.182-4.327-5.039-4.327-8.429c0-2.259,0.673-4.244,2.018-6.075
			c1.316-1.773,3.165-3.101,5.579-4.046c2.401-0.979,5.841-1.771,10.352-2.489c6.115-0.932,10.348-1.802,12.657-2.596v-1.066
			c0-2.046-0.611-3.514-1.82-4.368c-1.223-0.854-3.622-1.284-7.032-1.284c-2.31,0-4.111,0.382-5.41,1.115
			C346.011,46.854,344.937,48.167,344.158,50.028z M361.57,58.608c-1.651,0.461-4.266,1.038-7.917,1.637
			c-3.593,0.655-5.996,1.235-7.109,1.859c-1.667,0.946-2.556,2.2-2.556,3.727c0,1.468,0.705,2.75,2.081,3.849
			c1.361,1.097,3.088,1.584,5.165,1.584c2.371,0,4.617-0.609,6.728-1.875c1.59-0.946,2.615-2.09,3.118-3.482
			c0.322-0.917,0.489-2.595,0.489-5.174V58.608z"/>
		<path fill="#F39200" d="M434.83,66.394l11.557-1.586c0.473,2.077,1.512,3.588,3.025,4.703c1.5,1.101,3.564,1.588,6.269,1.588
			c2.998,0,5.244-0.487,6.74-1.498c1.025-0.716,1.515-1.678,1.515-2.838c0-0.78-0.273-1.466-0.81-1.97
			c-0.55-0.52-1.849-0.978-3.866-1.451c-9.28-1.861-15.229-3.528-17.689-5.145c-3.457-2.137-5.154-5.144-5.154-8.979
			c0-3.449,1.498-6.427,4.451-8.749c2.996-2.396,7.584-3.571,13.882-3.571c5.992,0,10.411,0.917,13.315,2.705
			c2.888,1.753,4.875,4.426,5.992,7.86l-10.9,1.878c-0.444-1.541-1.3-2.748-2.613-3.558c-1.331-0.825-3.183-1.237-5.596-1.237
			c-3.011,0-5.214,0.335-6.514,1.131c-0.885,0.567-1.327,1.269-1.327,2.168c0,0.762,0.381,1.42,1.176,1.906
			c1.023,0.733,4.616,1.742,10.778,2.979c6.16,1.297,10.409,2.885,12.869,4.731c2.372,1.851,3.609,4.52,3.609,7.896
			c0,3.616-1.665,6.778-5.028,9.403c-3.333,2.671-8.271,4.016-14.83,4.016c-5.947,0-10.594-1.146-14.096-3.357
			C438.114,73.235,435.87,70.229,434.83,66.394z"/>
	</g>
	<path fill="#F8AB00" d="M476.474,29.16c2.856,0,5.073,2.197,5.073,4.974c0,2.797-2.217,5.021-5.091,5.021
		c-2.874,0-5.137-2.225-5.137-5.021c0-2.776,2.263-4.974,5.137-4.974H476.474z M476.395,30.184c-2.154,0-3.821,1.785-3.821,3.95
		c0,2.248,1.667,4.004,3.9,4.004c2.169,0.028,3.791-1.756,3.791-3.942c0-2.227-1.622-4.012-3.809-4.012H476.395z M475.661,36.713
		h-1.147v-4.93c0.414-0.073,1.072-0.197,1.881-0.197c0.95,0,1.36,0.197,1.698,0.396c0.353,0.23,0.55,0.611,0.55,1.085
		c0,0.58-0.475,1.009-1.058,1.19v0.075c0.507,0.122,0.705,0.536,0.907,1.178c0.151,0.793,0.243,1.038,0.349,1.203h-1.222
		c-0.167-0.165-0.246-0.624-0.399-1.203c-0.092-0.521-0.383-0.716-1.009-0.716h-0.55V36.713z M475.691,33.951h0.52
		c0.625,0,1.162-0.182,1.162-0.73c0-0.459-0.353-0.765-1.086-0.765c-0.273,0-0.457,0.06-0.596,0.06V33.951z"/>
	<g>
		<path fill="#FFFFFF" d="M192.076,54.931l8.67-2.886l0.702,2.123c0.245,0.625,0.214,1.203-0.013,1.709
			c-0.262,0.504-0.689,0.885-1.226,1.036c-0.534,0.171-0.995,0.171-1.438,0.093c-0.412-0.137-0.81-0.368-1.038-0.703h-0.06
			c0.091,0.566,0,1.042-0.246,1.421c-0.277,0.444-0.72,0.718-1.314,0.977c-0.764,0.229-1.438,0.182-2.034-0.12
			c-0.61-0.337-1.057-0.795-1.254-1.496L192.076,54.931z M196.403,54.411l-3.103,1.052l0.382,1.175
			c0.183,0.538,0.458,0.872,0.826,1.086c0.397,0.153,0.794,0.182,1.299,0.045c1.008-0.351,1.344-1.131,0.933-2.334L196.403,54.411z
			 M200.12,53.158l-2.783,0.979l0.289,0.885c0.14,0.502,0.413,0.777,0.782,0.993c0.335,0.225,0.779,0.225,1.269,0.045
			c0.84-0.293,1.131-0.904,0.826-1.849L200.12,53.158z"/>
		<path fill="#FFFFFF" d="M206.066,64.013l-6.299,0.551l-2.951,1.603l-0.458-0.795l2.966-1.68l3.792-4.961l0.519,0.916l-2.735,3.559
			c-0.062,0.033-0.169,0.137-0.397,0.396v0.062c0.137-0.062,0.335-0.062,0.581-0.062l4.522-0.443L206.066,64.013z"/>
		<path fill="#FFFFFF" d="M209.185,74.943l-1.773,2.98l-0.78-0.491l4.602-7.832l1.896,1.103c0.718,0.396,1.162,0.958,1.3,1.57
			c0.199,0.642,0.045,1.343-0.351,2.064c-0.491,0.791-1.086,1.248-1.774,1.464c-0.734,0.197-1.484,0.105-2.232-0.308L209.185,74.943
			z M211.569,70.885l-1.925,3.233l0.841,0.491c0.596,0.291,1.084,0.43,1.557,0.275c0.414-0.123,0.826-0.396,1.103-0.991
			c0.642-0.993,0.426-1.847-0.643-2.473L211.569,70.885z"/>
		<path fill="#FFFFFF" d="M222.179,82.363l-1.008-0.118l-0.521-2.628l-3.316-0.428l-1.117,2.473l-1.024-0.165l4.143-8.688
			l0.979,0.135L222.179,82.363z M220.466,78.61l-0.764-4.001c-0.015-0.121-0.015-0.32-0.015-0.626h-0.031
			c-0.091,0.261-0.167,0.413-0.214,0.597l-1.696,3.709L220.466,78.61z"/>
		<path fill="#FFFFFF" d="M229.854,72.9l-2.187,0.502l1.82,7.971l-0.916,0.197l-1.806-7.954l-2.232,0.502l-0.199-0.927l5.304-1.283
			L229.854,72.9z"/>
		<path fill="#FFFFFF" d="M241.549,74.518l-0.797,0.656l-2.245-1.436l-2.63,2.063l0.992,2.487l-0.795,0.658l-3.394-9.039
			l0.719-0.564L241.549,74.518z M237.634,73.146l-3.425-2.261c-0.091-0.076-0.243-0.182-0.458-0.397h-0.031
			c0.153,0.216,0.246,0.426,0.307,0.564l1.513,3.818L237.634,73.146z"/>
		<path fill="#FFFFFF" d="M248.122,63.876l-0.534,0.991l-8.317,0.308c-0.185,0-0.443,0-0.627,0l0,0
			c0.153,0.045,0.579,0.214,1.115,0.548l5.9,2.963l-0.426,0.825l-8.148-4.14l0.549-1.066l8.195-0.243
			c0.352-0.049,0.58-0.049,0.687,0v-0.049c-0.229-0.06-0.687-0.321-1.208-0.579l-5.75-2.915l0.416-0.795L248.122,63.876z"/>
		<path fill="#FFFFFF" d="M251.409,52.138l-0.229,1.008l-2.676,0.195l-0.75,3.297l2.309,1.345l-0.23,1.01l-8.224-4.993l0.213-0.945
			L251.409,52.138z M247.51,53.465l-4.083,0.335c-0.137,0-0.32,0-0.641,0l0,0c0.213,0.09,0.443,0.199,0.58,0.246l3.53,2.092
			L247.51,53.465z"/>
	</g>
</g>
</svg>
